<svg width="512" height="512" viewBox="0 0 512 512" xmlns="http://www.w3.org/2000/svg">
  <defs>
    <linearGradient id="blueGrad" x1="0%" y1="0%" x2="100%" y2="100%">
      <stop offset="0%" style="stop-color:#1B5EAA;stop-opacity:1" />
      <stop offset="100%" style="stop-color:#0D47A1;stop-opacity:1" />
    </linearGradient>
    <linearGradient id="silverGrad" x1="0%" y1="0%" x2="100%" y2="100%">
      <stop offset="0%" style="stop-color:#FFFFFF;stop-opacity:1" />
      <stop offset="100%" style="stop-color:#BDBDBD;stop-opacity:1" />
    </linearGradient>
  </defs>

  <path d="M220,320 L260,250 L290,180 L330,140 L450,50 L410,120 L460,110 L430,170 L360,280 L280,360 Z" fill="url(#blueGrad)" />
  
  <path d="M220,320 L100,260 L180,240 L80,200 L170,190 L90,130 L190,150 L140,50 L240,180 Z" fill="#0D47A1" />
  
  <path d="M140,50 L195,135 L170,110 Z" fill="url(#silverGrad)" />
  <path d="M80,200 L140,210 L110,180 Z" fill="#E0E0E0" />
  <path d="M220,320 L180,380 L235,350 L225,420 L280,360 Z" fill="#1565C0" />
  
  <path d="M225,420 L250,380 L240,400 Z" fill="#BDBDBD" />
  <path d="M290,180 L310,165 L295,195 Z" fill="#FFFFFF" opacity="0.8" />
</svg>
